<svg width="393" height="188" viewBox="0 0 393 188" fill="none" xmlns="http://www.w3.org/2000/svg">
<g clip-path="url(#clip0_6_2)">
<path d="M350.669 113.07L361.544 130.47C361.96 131.136 361.481 132 360.696 132H350.289C350.1 132 349.915 131.946 349.755 131.845L341.059 126.353C340.72 126.139 340.286 126.148 339.956 126.377L334.197 130.364C334.067 130.453 333.919 130.511 333.763 130.532L324.006 131.863C323.453 131.938 323.068 132.452 323.152 133.004L327.482 161.579C327.632 162.57 326.392 163.141 325.737 162.383L312.703 147.313C312.323 146.874 311.65 146.85 311.24 147.26L298.815 159.685C298.614 159.886 298.339 159.992 298.056 159.977L269.962 158.524C269.669 158.509 269.397 158.366 269.219 158.133L263.351 150.458C263.134 150.175 262.782 150.028 262.428 150.074L236 153.5L216.724 156.465C216.577 156.488 216.426 156.478 216.283 156.434L196.289 150.39C195.647 150.196 195 150.676 195 151.347V158.871C195 159.471 194.475 159.936 193.879 159.864L142.439 153.614C141.912 153.55 141.427 153.909 141.334 154.431L139.285 165.902C139.155 166.635 138.297 166.973 137.701 166.526L127.668 159.001C127.281 158.711 126.742 158.739 126.388 159.068L120.232 164.784C120.081 164.925 119.89 165.015 119.686 165.043L61.9384 172.873C61.4121 172.944 60.9218 172.592 60.8219 172.07L52.1259 126.658C52.0497 126.26 52.2212 125.855 52.5601 125.633L66.048 116.796C66.3301 116.611 66.5 116.297 66.5 115.96V94.5651C66.5 93.9881 66.0129 93.5308 65.437 93.5671L19.9806 96.4381C19.4363 96.4724 18.9648 96.0643 18.9209 95.5206L15.0788 47.975C15.035 47.4331 15.4322 46.9554 15.973 46.8997L63.5 42L79.5224 40.5863C80.0652 40.5384 80.5465 40.934 80.6046 41.4759L81.9043 53.6065C81.9587 54.1147 82.3875 54.5 82.8986 54.5H93C93.5523 54.5 94 54.0523 94 53.5V47.9524C94 47.4191 94.4186 46.9796 94.9513 46.9536L113.34 46.0566C113.951 46.0268 114.392 45.461 114.272 44.8616L111.226 29.6323C111.107 29.035 111.545 28.4706 112.153 28.4377L147.066 26.5505C147.592 26.5221 148.049 26.9061 148.113 27.4287L149.881 42.0147C149.947 42.56 150.44 42.95 150.986 42.8879L171.907 40.5106C171.969 40.5036 172.031 40.5023 172.094 40.507L205.5 43L242.88 40.5727C243.477 40.534 243.906 39.984 243.799 39.3959L243.016 35.0887C243.005 35.0297 243 34.9698 243 34.9098V28.1161C243 28.0389 243.009 27.9621 243.027 27.887L244.942 19.7462C244.98 19.5846 245.058 19.435 245.168 19.3109L248.702 15.3356C248.891 15.1221 249.163 15 249.449 15H258.717C258.902 15 259.083 15.0514 259.241 15.1483L265.178 18.8016C265.385 18.9294 265.539 19.1288 265.61 19.3621L272.085 40.6352C272.287 41.2988 273.086 41.5602 273.641 41.144L284.185 33.2366C284.387 33.0846 284.64 33.0151 284.892 33.0424L302.692 34.9667C302.893 34.9884 303.082 35.0703 303.235 35.2016L316.632 46.6844C316.864 46.8837 317.175 46.9655 317.476 46.9063L349.781 40.5432C349.925 40.5147 350.074 40.5185 350.217 40.5542L371.497 45.8743C371.812 45.9531 372.07 46.1803 372.187 46.4834L377.903 61.249C377.966 61.4134 377.986 61.5917 377.958 61.7659L375.103 79.849C375.04 80.2439 374.749 80.5638 374.361 80.6622L346.184 87.8184C345.277 88.0488 345.155 89.288 346 89.6905L372.779 102.442C373.589 102.828 373.52 104.003 372.671 104.292L351.195 111.594C350.585 111.801 350.327 112.524 350.669 113.07Z" fill="#3E2660" stroke="#FF0000" stroke-width="30"/>
<path d="M350.669 113.07L361.544 130.47C361.96 131.136 361.481 132 360.696 132H350.289C350.1 132 349.915 131.946 349.755 131.845L341.059 126.353C340.72 126.139 340.286 126.148 339.956 126.377L334.197 130.364C334.067 130.453 333.919 130.511 333.763 130.532L324.006 131.863C323.453 131.938 323.068 132.452 323.152 133.004L327.482 161.579C327.632 162.57 326.392 163.141 325.737 162.383L312.703 147.313C312.323 146.874 311.65 146.85 311.24 147.26L298.815 159.685C298.614 159.886 298.339 159.992 298.056 159.977L269.962 158.524C269.669 158.509 269.397 158.366 269.219 158.133L263.351 150.458C263.134 150.175 262.782 150.028 262.428 150.074L236 153.5L216.724 156.465C216.577 156.488 216.426 156.478 216.283 156.434L196.289 150.39C195.647 150.196 195 150.676 195 151.347V158.871C195 159.471 194.475 159.936 193.879 159.864L142.439 153.614C141.912 153.55 141.427 153.909 141.334 154.431L139.285 165.902C139.155 166.635 138.297 166.973 137.701 166.526L127.668 159.001C127.281 158.711 126.742 158.739 126.388 159.068L120.232 164.784C120.081 164.925 119.89 165.015 119.686 165.043L61.9384 172.873C61.4121 172.944 60.9218 172.592 60.8219 172.07L52.1259 126.658C52.0497 126.26 52.2212 125.855 52.5601 125.633L66.048 116.796C66.3301 116.611 66.5 116.297 66.5 115.96V94.5651C66.5 93.9881 66.0129 93.5308 65.437 93.5671L19.9806 96.4381C19.4363 96.4724 18.9648 96.0643 18.9209 95.5206L15.0788 47.975C15.035 47.4331 15.4322 46.9554 15.973 46.8997L63.5 42L79.5224 40.5863C80.0652 40.5384 80.5465 40.934 80.6046 41.4759L81.9043 53.6065C81.9587 54.1147 82.3875 54.5 82.8986 54.5H93C93.5523 54.5 94 54.0523 94 53.5V47.9524C94 47.4191 94.4186 46.9796 94.9513 46.9536L113.34 46.0566C113.951 46.0268 114.392 45.461 114.272 44.8616L111.226 29.6323C111.107 29.035 111.545 28.4706 112.153 28.4377L147.066 26.5505C147.592 26.5221 148.049 26.9061 148.113 27.4287L149.881 42.0147C149.947 42.56 150.44 42.95 150.986 42.8879L171.907 40.5106C171.969 40.5036 172.031 40.5023 172.094 40.507L205.5 43L242.88 40.5727C243.477 40.534 243.906 39.984 243.799 39.3959L243.016 35.0887C243.005 35.0297 243 34.9698 243 34.9098V28.1161C243 28.0389 243.009 27.9621 243.027 27.887L244.942 19.7462C244.98 19.5846 245.058 19.435 245.168 19.3109L248.702 15.3356C248.891 15.1221 249.163 15 249.449 15H258.717C258.902 15 259.083 15.0514 259.241 15.1483L265.178 18.8016C265.385 18.9294 265.539 19.1288 265.61 19.3621L272.085 40.6352C272.287 41.2988 273.086 41.5602 273.641 41.144L284.185 33.2366C284.387 33.0846 284.64 33.0151 284.892 33.0424L302.692 34.9667C302.893 34.9884 303.082 35.0703 303.235 35.2016L316.632 46.6844C316.864 46.8837 317.175 46.9655 317.476 46.9063L349.781 40.5432C349.925 40.5147 350.074 40.5185 350.217 40.5542L371.497 45.8743C371.812 45.9531 372.07 46.1803 372.187 46.4834L377.903 61.249C377.966 61.4134 377.986 61.5917 377.958 61.7659L375.103 79.849C375.04 80.2439 374.749 80.5638 374.361 80.6622L346.184 87.8184C345.277 88.0488 345.155 89.288 346 89.6905L372.779 102.442C373.589 102.828 373.52 104.003 372.671 104.292L351.195 111.594C350.585 111.801 350.327 112.524 350.669 113.07Z" fill="#3E2660" stroke="#3E2660" stroke-width="29"/>
<mask id="mask0_6_2" style="mask-type:alpha" maskUnits="userSpaceOnUse" x="15" y="29" width="361" height="140">
<path d="M322.837 164.662L317.16 128.82L325.694 127.469L324.342 118.935L351.839 114.58L353.191 123.114L361.819 121.747L363.486 132.272L352.961 133.939L351.625 125.5L327.92 129.254L333.267 163.01L322.837 164.662Z" fill="#FAE5B4"/>
<path d="M269.983 156.645L270.728 148.134L262.121 147.381L264.539 119.742L273.146 120.495L273.899 111.888L301.633 114.314L300.88 122.922L309.583 123.683L308.654 134.298L298.038 133.37L298.783 124.858L274.874 122.766L274.331 128.983L291.545 130.489L290.599 141.295L273.385 139.789L272.833 146.101L296.742 148.193L297.503 139.49L308.118 140.419L307.173 151.226L298.47 150.464L297.717 159.071L269.983 156.645Z" fill="#FAE5B4"/>
<path d="M211.991 155.721L207.294 111.039L243.574 107.226L244.478 115.818L253.166 114.905L256.959 150.994L246.361 152.108L242.789 118.12L218.92 120.628L222.493 154.617L211.991 155.721Z" fill="#FAE5B4"/>
<path d="M151.784 152.098L156.481 107.416L192.761 111.23L191.858 119.822L200.546 120.735L196.753 156.825L186.155 155.711L189.728 121.722L165.859 119.213L162.287 153.202L151.784 152.098Z" fill="#FAE5B4"/>
<path d="M133.324 165.652V120.724H143.884V165.652H133.324ZM133.324 114.58V103.732H143.884V114.58H133.324Z" fill="#FAE5B4"/>
<path d="M64.8513 168.698L59.376 124.105L69.8573 122.818L74.0223 156.739L89.3631 154.855L85.1981 120.934L95.5841 119.659L99.7491 153.58L115.09 151.696L110.925 117.775L121.311 116.5L125.745 152.613L117.265 153.654L118.306 162.134L99.1537 164.486L98.1125 156.006L91.4426 156.825L92.4838 165.305L64.8513 168.698Z" fill="#FAE5B4"/>
<path d="M339.899 87.4448L339.154 78.9334L330.547 79.6864L328.129 52.0479L336.736 51.2949L335.983 42.6878L363.717 40.2614L364.47 48.8685L373.173 48.1071L374.102 58.7226L363.486 59.6513L362.742 51.1398L338.833 53.2315L339.377 59.4478L356.591 57.9418L357.536 68.7485L340.322 70.2545L340.874 76.5664L364.783 74.4747L364.022 65.7719L374.637 64.8432L375.583 75.6499L366.88 76.4113L367.633 85.0184L339.899 87.4448Z" fill="#FAE5B4"/>
<path d="M285.488 98.2223L286.677 89.7615L278.121 88.559L281.688 63.1764L273.132 61.974L274.629 51.3266L283.185 52.5291L285.549 35.7024L295.912 37.1588L293.547 53.9854L319.405 57.6195L317.908 68.2668L292.05 64.6328L288.79 87.8288L312.747 91.1957L313.949 82.6398L324.407 84.1094L322.897 94.8519L314.341 93.6494L313.152 102.11L285.488 98.2223Z" fill="#FAE5B4"/>
<path d="M254.695 88.0058L251.561 43.1872L262.096 42.4506L265.23 87.2692L254.695 88.0058Z" fill="#FAE5B4"/>
<path d="M194.376 89.3186L195.126 78.5927L229.602 81.0035L230.044 74.683L204.187 72.8749L204.783 64.3517L196.164 63.749L196.907 53.1189L205.526 53.7216L206.129 45.1027L242.616 47.6541L241.866 58.3799L207.294 55.9624L206.859 62.1872L232.716 63.9953L232.12 72.5185L240.835 73.1279L240.078 83.9495L231.363 83.3401L230.767 91.8633L194.376 89.3186Z" fill="#FAE5B4"/>
<path d="M151.498 91.416L150.456 82.9356L141.881 83.9886L135.376 31.0104L145.857 29.7235L147.928 46.5888L173.655 43.43L174.708 52.0056L183.379 50.9409L186.76 78.4781L178.089 79.5428L179.13 88.0231L151.498 91.416ZM152.093 80.5101L175.914 77.5852L173.06 54.3358L149.238 57.2607L152.093 80.5101Z" fill="#FAE5B4"/>
<path d="M96.016 94.428V85.884H87.376V58.14H96.016V49.5H123.856V58.14H132.592V68.796H121.936V60.252H97.936V66.492H115.216V77.34H97.936V83.676H121.936V74.94H132.592V85.788H123.856V94.428H96.016Z" fill="#FAE5B4"/>
<path d="M18.9157 93.2858L15 48.5287L25.5198 47.6084L28.4985 81.6543L43.8956 80.3072L40.917 46.2613L51.3412 45.3493L54.3198 79.3952L69.717 78.0482L66.7384 44.0022L77.1626 43.0902L80.3336 79.3358L71.8221 80.0804L72.5668 88.5919L53.3442 90.2737L52.5996 81.7622L45.9051 82.3479L46.6498 90.8594L18.9157 93.2858Z" fill="#FAE5B4"/>
</mask>
<g mask="url(#mask0_6_2)">
<rect x="33" y="130.5" width="365" height="50" fill="#DC6161"/>
<rect x="32" y="139.5" width="382" height="6" fill="#E3A0A0" fill-opacity="0.3"/>
<rect x="33" y="133.5" width="382" height="6" fill="#E3A0A0" fill-opacity="0.66"/>
<rect x="33" y="127.5" width="382" height="6" fill="#E3A0A0" fill-opacity="0.66"/>
<rect x="30" y="97.5" width="383" height="36" fill="#E3A0A0"/>
<rect x="7" y="56.5" width="375" height="46" fill="#DC6161"/>
<rect x="6" y="65.5" width="382" height="6" fill="#E3A0A0" fill-opacity="0.3"/>
<rect x="7" y="59.5" width="382" height="6" fill="#E3A0A0" fill-opacity="0.66"/>
<rect x="7" y="53.5" width="382" height="6" fill="#E3A0A0" fill-opacity="0.66"/>
<rect x="4" y="23.5" width="383" height="36" fill="#E3A0A0"/>
</g>
<path d="M265 27.5C265 32.4706 260.971 36.5 256 36.5C251.029 36.5 247 32.4706 247 27.5C247 22.5294 251.029 18.5 256 18.5C260.971 18.5 265 22.5294 265 27.5Z" fill="black" fill-opacity="0.15"/>
<path d="M252 29.5C252 29.5 253.5 31.5 256 31.5C258.5 31.5 260 29.5 260 29.5M259 24.5H259.01M253 24.5H253.01M265 27.5C265 32.4706 260.971 36.5 256 36.5C251.029 36.5 247 32.4706 247 27.5C247 22.5294 251.029 18.5 256 18.5C260.971 18.5 265 22.5294 265 27.5Z" stroke="#E3A0A0" stroke-width="2" stroke-linecap="round" stroke-linejoin="round"/>
<g clip-path="url(#clip1_6_2)">
<path fill-rule="evenodd" clip-rule="evenodd" d="M121.391 30.5373L116.924 31.0857C116.65 31.1193 116.455 31.3688 116.489 31.6429L117.586 40.5758C117.619 40.8498 117.869 41.0448 118.143 41.0111L127.076 39.9143C127.35 39.8807 127.545 39.6312 127.511 39.3571L126.963 34.8907C126.895 34.3425 127.285 33.8435 127.833 33.7762C128.382 33.7089 128.881 34.0987 128.948 34.6469L129.496 39.1134C129.665 40.4838 128.69 41.7311 127.32 41.8994L118.387 42.9962C117.016 43.1645 115.769 42.1899 115.601 40.8195L114.504 31.8866C114.336 30.5162 115.31 29.2689 116.68 29.1006L121.147 28.5522C121.695 28.4849 122.194 28.8747 122.261 29.4229C122.329 29.971 121.939 30.47 121.391 30.5373ZM123.704 28.5492C123.758 28.3543 123.924 28.2112 124.125 28.1866L127.598 27.76C127.873 27.7264 128.122 27.9213 128.156 28.1954L128.582 31.6693C128.607 31.87 128.508 32.0658 128.332 32.1654C128.156 32.265 127.937 32.2487 127.778 32.1242L126.616 31.2162L122.788 36.1157C122.448 36.5509 121.82 36.628 121.384 36.288C120.949 35.948 120.872 35.3195 121.212 34.8843L125.04 29.9849L123.878 29.0768C123.718 28.9523 123.65 28.7441 123.704 28.5492Z" fill="#C8D8FF"/>
</g>
<g clip-path="url(#clip2_6_2)">
<path d="M367.796 93.3438L356.998 95.4427L352.253 102.477L359.288 107.222L370.086 105.123C370.628 105.018 370.982 104.493 370.876 103.951L368.968 94.1346C368.863 93.5925 368.338 93.2384 367.796 93.3438Z" fill="black" fill-opacity="0.15"/>
<path d="M365.423 96.8611L363.051 100.378M363.051 100.378L360.678 103.896M363.051 100.378L359.534 98.0059M363.051 100.378L366.568 102.751M356.998 95.4427L367.796 93.3438C368.338 93.2384 368.863 93.5925 368.968 94.1346L370.876 103.951C370.982 104.493 370.628 105.018 370.086 105.123L359.288 107.222L352.253 102.477L356.998 95.4427Z" stroke="#C8D8FF" stroke-width="2" stroke-linecap="round" stroke-linejoin="round"/>
</g>
<path d="M79 95.5L89 102.5L79 109.5L79 104.6L71 109.5V95.5L79 100.4V95.5Z" fill="black" fill-opacity="0.15"/>
<path d="M79 104.6L71 109.5V95.5L79 100.4M79 109.5L79 95.5L89 102.5L79 109.5Z" stroke="#C8D8FF" stroke-width="2" stroke-linecap="round" stroke-linejoin="round"/>
<g clip-path="url(#clip3_6_2)">
<path fill-rule="evenodd" clip-rule="evenodd" d="M258.693 107.338L259.472 98.4374L270.338 99.3881L269.559 108.288C269.549 108.401 269.45 108.484 269.338 108.474L258.879 107.559C258.766 107.549 258.683 107.45 258.693 107.338ZM258.114 96.7479C258.196 95.8102 259.022 95.1165 259.96 95.1985L270.419 96.1136C271.357 96.1956 272.05 97.0223 271.968 97.9601L271.053 108.419C270.971 109.357 270.145 110.05 269.207 109.968L258.748 109.053C257.81 108.971 257.117 108.145 257.199 107.207L258.114 96.7479Z" fill="#C8D8FF"/>
</g>
</g>
<defs>
<clipPath id="clip0_6_2">
<rect width="393" height="188" fill="white"/>
</clipPath>
<clipPath id="clip1_6_2">
<rect width="14" height="14" fill="white" transform="translate(114.199 29.4053) rotate(-7)"/>
</clipPath>
<clipPath id="clip2_6_2">
<rect width="24" height="24" fill="white" transform="translate(348 91.0794) rotate(-11)"/>
</clipPath>
<clipPath id="clip3_6_2">
<rect width="14" height="14" fill="white" transform="translate(258.22 95) rotate(5)"/>
</clipPath>
</defs>
</svg>
